<?xml version="1.0" encoding="UTF-8" standalone="no"?><!DOCTYPE svg PUBLIC "-//W3C//DTD SVG 1.1//EN" "http://www.w3.org/Graphics/SVG/1.1/DTD/svg11.dtd"><svg width="100%" height="100%" viewBox="0 0 383 383" version="1.1" xmlns="http://www.w3.org/2000/svg" xmlns:xlink="http://www.w3.org/1999/xlink" xml:space="preserve" xmlns:serif="http://www.serif.com/" style="fill-rule:evenodd;clip-rule:evenodd;stroke-linejoin:round;stroke-miterlimit:2;"><g><path d="M241.125,115.504l-19.917,0.013c-15.625,-0 -18.666,7.425 -18.666,18.312l-0,24.012l37.249,0l-4.833,37.626l-32.416,-0l-0,96.516l-38.834,0l-0,-96.516l-32.5,-0l0,-37.626l32.5,0l-0,-27.737c-0,-32.196 19.667,-49.729 48.375,-49.729c13.75,-0 25.583,1.029 29.042,1.487l-0,33.642Zm-49.75,-115.504c-105.709,0 -191.375,85.683 -191.375,191.375c0,105.696 85.666,191.379 191.375,191.379c105.666,0 191.375,-85.683 191.375,-191.379c-0,-105.692 -85.709,-191.375 -191.375,-191.375Z" style="fill:#1a161d;fill-rule:nonzero;"/></g></svg>