<?xml version="1.0" encoding="UTF-8" standalone="no"?><!DOCTYPE svg PUBLIC "-//W3C//DTD SVG 1.1//EN" "http://www.w3.org/Graphics/SVG/1.1/DTD/svg11.dtd"><svg width="100%" height="100%" viewBox="0 0 386 386" version="1.1" xmlns="http://www.w3.org/2000/svg" xmlns:xlink="http://www.w3.org/1999/xlink" xml:space="preserve" xmlns:serif="http://www.serif.com/" style="fill-rule:evenodd;clip-rule:evenodd;stroke-linejoin:round;stroke-miterlimit:2;"><g><path d="M252.875,145.913c-7.542,-0 -13.625,-6.084 -13.625,-13.584c-0,-7.5 6.083,-13.541 13.625,-13.541c7.542,-0 13.625,6.041 13.625,13.541c-0,7.5 -6.083,13.584 -13.625,13.584Zm-60.667,104.791c-32.25,0 -58.375,-26 -58.375,-58.041c0,-32.042 26.125,-58.042 58.375,-58.042c32.209,-0 58.375,26 58.375,58.042c-0,32.041 -26.166,58.041 -58.375,58.041Zm88.625,-124.708c-2.083,-5.25 -4.542,-9.042 -8.541,-13c-3.959,-3.958 -7.75,-6.375 -13.042,-8.458c-4,-1.542 -10.042,-3.376 -21.125,-3.876c-12,-0.541 -15.584,-0.666 -45.917,-0.666c-30.375,-0 -33.958,0.125 -45.958,0.666c-11.084,0.5 -17.083,2.334 -21.084,3.876c-5.333,2.083 -9.083,4.5 -13.083,8.458c-3.958,3.958 -6.416,7.75 -8.5,13c-1.541,4 -3.417,9.958 -3.917,21c-0.541,11.917 -0.666,15.5 -0.666,45.667c-0,30.166 0.125,33.75 0.666,45.666c0.5,11 2.376,17 3.917,21c2.084,5.25 4.542,9.042 8.5,12.958c4,3.959 7.75,6.417 13.083,8.459c4.001,1.583 10,3.417 21.084,3.917c12,0.541 15.583,0.666 45.958,0.666c30.333,0 33.917,-0.125 45.917,-0.666c11.083,-0.5 17.125,-2.334 21.125,-3.917c5.292,-2.042 9.083,-4.5 13.042,-8.459c3.999,-3.916 6.458,-7.708 8.541,-12.958c1.542,-4 3.375,-10 3.875,-21c0.584,-11.916 0.667,-15.5 0.667,-45.666c-0,-30.167 -0.083,-33.75 -0.667,-45.667c-0.5,-11.042 -2.333,-17 -3.875,-21Z" style="fill:#1a161d;fill-rule:nonzero;"/><path d="M192.208,154.996c-20.916,-0 -37.917,16.875 -37.917,37.667c0,20.791 17.001,37.666 37.917,37.666c20.917,0 37.875,-16.875 37.875,-37.666c0,-20.792 -16.958,-37.667 -37.875,-37.667Z" style="fill:#1a161d;fill-rule:nonzero;"/><path d="M305.167,239.246c-0.542,12.041 -2.459,20.25 -5.25,27.458c-2.917,7.417 -6.792,13.709 -13.126,20c-6.333,6.292 -12.666,10.167 -20.124,13.042c-7.251,2.792 -15.501,4.708 -27.584,5.25c-12.125,0.542 -16,0.667 -46.875,0.667c-30.875,-0 -34.75,-0.125 -46.875,-0.667c-12.083,-0.542 -20.375,-2.458 -27.583,-5.25c-7.5,-2.875 -13.834,-6.75 -20.125,-13.042c-6.334,-6.291 -10.208,-12.583 -13.125,-20c-2.833,-7.208 -4.75,-15.417 -5.292,-27.458c-0.541,-12.042 -0.666,-15.875 -0.666,-46.583c-0,-30.709 0.125,-34.542 0.666,-46.584c0.542,-12.041 2.459,-20.25 5.292,-27.458c2.917,-7.417 6.791,-13.708 13.125,-20c6.291,-6.292 12.625,-10.167 20.125,-13.042c7.208,-2.791 15.5,-4.708 27.583,-5.25c12.125,-0.537 16,-0.708 46.875,-0.708c30.875,-0 34.75,0.171 46.875,0.708c12.083,0.542 20.333,2.459 27.584,5.25c7.458,2.875 13.791,6.75 20.124,13.042c6.334,6.292 10.209,12.583 13.126,20c2.791,7.208 4.708,15.417 5.25,27.458c0.583,12.042 0.708,15.875 0.708,46.584c-0,30.708 -0.125,34.541 -0.708,46.583Zm-112.376,-239.246c-106.458,0 -192.791,86.329 -192.791,192.829c-0,106.5 86.333,192.792 192.791,192.792c106.5,-0 192.834,-86.292 192.834,-192.792c-0,-106.5 -86.334,-192.829 -192.834,-192.829Z" style="fill:#1a161d;fill-rule:nonzero;"/></g></svg>