<?xml version="1.0" encoding="UTF-8" standalone="no"?><!DOCTYPE svg PUBLIC "-//W3C//DTD SVG 1.1//EN" "http://www.w3.org/Graphics/SVG/1.1/DTD/svg11.dtd"><svg width="100%" height="100%" viewBox="0 0 385 385" version="1.1" xmlns="http://www.w3.org/2000/svg" xmlns:xlink="http://www.w3.org/1999/xlink" xml:space="preserve" xmlns:serif="http://www.serif.com/" style="fill-rule:evenodd;clip-rule:evenodd;stroke-linejoin:round;stroke-miterlimit:2;"><g><path d="M296.541,283.104l-40.666,-0l-0,-63.679c-0,-15.192 -0.292,-34.738 -21.125,-34.738c-21.208,0 -24.417,16.546 -24.417,33.634l0,64.783l-40.666,-0l-0,-130.967l38.999,0l0,17.896l0.584,0c5.416,-10.3 18.708,-21.158 38.5,-21.158c41.167,-0 48.791,27.117 48.791,62.392l0,71.837Zm-172.791,-148.875c-13.084,0 -23.625,-10.575 -23.625,-23.617c-0,-13.012 10.541,-23.591 23.625,-23.591c13.041,-0 23.583,10.579 23.583,23.591c0,13.042 -10.542,23.617 -23.583,23.617Zm20.375,148.875l-40.75,-0l-0,-130.967l40.75,0l-0,130.967Zm48.042,-283.104c-106.126,0 -192.167,86.042 -192.167,192.179c0,106.137 86.041,192.179 192.167,192.179c106.166,0 192.208,-86.042 192.208,-192.179c0,-106.137 -86.042,-192.179 -192.208,-192.179Z" style="fill:#1a161d;fill-rule:nonzero;"/></g></svg>