<?xml version="1.0" standalone="no"?>
<!DOCTYPE svg PUBLIC "-//W3C//DTD SVG 20010904//EN"
 "http://www.w3.org/TR/2001/REC-SVG-20010904/DTD/svg10.dtd">
<svg version="1.0" xmlns="http://www.w3.org/2000/svg"
 width="1117.000000pt" height="1117.000000pt" viewBox="0 0 1117.000000 1117.000000"
 preserveAspectRatio="xMidYMid meet">
<metadata>
Created by potrace 1.14, written by Peter Selinger 2001-2017
</metadata>
<g transform="translate(0.000000,1117.000000) scale(0.100000,-0.100000)"
fill="#000000" stroke="none">
<path d="M5428 11165 c-2 -1 -57 -6 -123 -10 -66 -4 -122 -8 -125 -10 -3 -1
-41 -6 -84 -10 -43 -4 -86 -8 -95 -10 -9 -1 -38 -6 -66 -9 -69 -10 -106 -16
-135 -21 -14 -3 -41 -7 -60 -10 -369 -59 -905 -221 -1253 -379 -32 -14 -60
-26 -63 -26 -10 0 -376 -186 -432 -219 -29 -17 -55 -31 -57 -31 -3 0 -36 -20
-75 -45 -39 -25 -72 -45 -75 -45 -17 0 -492 -331 -515 -359 -3 -3 -30 -25 -60
-48 -30 -23 -64 -50 -75 -60 -11 -10 -38 -33 -60 -52 -145 -122 -357 -328
-504 -491 -676 -746 -1136 -1664 -1336 -2665 -20 -99 -61 -372 -71 -465 -3
-30 -7 -71 -9 -90 -26 -247 -26 -922 0 -1058 1 -9 6 -51 10 -92 4 -41 8 -82
10 -90 1 -8 6 -40 10 -70 4 -30 9 -64 11 -75 2 -10 6 -37 10 -60 17 -118 101
-491 134 -600 103 -330 142 -441 233 -655 234 -553 573 -1087 975 -1540 84
-94 348 -360 427 -430 33 -29 76 -67 95 -84 63 -56 192 -159 325 -259 139
-104 176 -118 183 -68 4 25 -5 34 -120 131 -71 60 -318 307 -398 399 -143 163
-325 410 -425 576 -26 44 -85 136 -131 205 -236 356 -435 878 -529 1385 -10
50 -19 101 -22 115 -7 36 -10 58 -18 120 -3 30 -8 60 -10 67 -11 35 -20 212
-20 408 0 239 8 386 31 545 3 25 8 59 10 75 2 17 6 41 9 55 2 14 7 40 10 58
83 520 332 1195 625 1692 16 28 30 52 30 54 0 16 271 435 353 546 241 326 385
500 616 749 560 604 1204 1124 1924 1555 98 58 179 106 181 106 2 0 41 21 87
46 602 334 1284 588 1884 700 17 3 37 7 45 9 8 2 40 6 70 10 30 4 62 9 70 10
8 2 40 6 70 10 30 4 66 8 79 11 149 23 597 23 741 0 14 -3 43 -7 65 -10 85
-11 124 -18 245 -47 69 -16 142 -36 164 -45 78 -30 43 -6 -61 44 -286 134
-542 236 -778 308 -44 13 -93 28 -110 34 -43 13 -255 68 -285 73 -14 3 -43 10
-65 15 -22 6 -56 14 -75 17 -19 3 -55 9 -80 14 -138 28 -372 62 -525 76 -33 3
-85 8 -115 11 -60 6 -686 14 -692 9z"/>
<path d="M7317 10564 c-1 -1 -51 -4 -112 -8 -188 -10 -329 -26 -455 -51 -13
-2 -42 -7 -65 -10 -22 -3 -47 -8 -55 -10 -8 -2 -29 -7 -47 -10 -192 -32 -739
-200 -948 -290 -16 -7 -84 -35 -150 -63 -66 -27 -169 -74 -230 -103 -60 -30
-112 -54 -115 -54 -10 -2 -240 -122 -345 -180 -530 -296 -1032 -650 -1501
-1060 -164 -142 -559 -533 -700 -690 -348 -388 -660 -818 -893 -1229 -33 -58
-58 -106 -56 -106 2 0 32 44 67 98 363 553 932 1075 1515 1390 107 58 339 172
350 172 5 0 20 7 35 14 112 58 574 209 743 242 11 2 65 13 120 24 135 26 208
38 280 46 33 3 62 7 65 9 3 1 57 7 120 11 211 16 737 9 844 -12 10 -2 44 -6
75 -9 31 -4 63 -8 71 -10 8 -2 38 -7 65 -11 28 -3 102 -17 165 -31 63 -13 129
-27 145 -29 60 -11 340 -96 462 -140 175 -64 311 -123 508 -221 327 -164 510
-230 690 -250 220 -25 398 11 620 125 361 185 609 511 680 897 14 77 16 91 19
191 7 205 -48 393 -171 584 -97 151 -355 385 -538 488 -234 131 -513 223 -790
259 -22 2 -51 6 -65 8 -62 9 -396 24 -403 19z"/>
<path d="M7649 7636 c-2 -2 -44 -7 -94 -10 -49 -4 -99 -9 -110 -11 -11 -2 -42
-7 -70 -10 -192 -23 -525 -115 -736 -203 -253 -107 -431 -206 -669 -373 -235
-166 -527 -461 -714 -723 -119 -166 -258 -412 -326 -576 -17 -41 -35 -84 -40
-95 -23 -54 -53 -142 -99 -290 -21 -64 -61 -245 -80 -355 -19 -108 -37 -289
-25 -245 11 39 76 211 102 270 286 646 738 1101 1327 1335 84 33 254 86 330
102 120 25 142 29 185 34 25 2 52 7 60 9 35 9 205 19 340 19 131 -1 337 -11
350 -19 3 -2 28 -6 55 -9 46 -6 99 -15 135 -22 616 -121 1181 -418 1609 -844
105 -104 183 -193 251 -285 25 -33 47 -62 50 -65 18 -16 127 -192 173 -277
103 -192 169 -361 222 -568 32 -124 41 -168 51 -245 2 -19 6 -46 9 -60 9 -52
17 -179 17 -300 0 -111 -3 -161 -18 -314 -12 -127 -58 -337 -106 -491 -18 -55
-32 -102 -33 -105 -1 -3 -5 -14 -10 -25 -4 -11 -24 -60 -43 -110 -92 -236
-211 -459 -388 -727 -155 -233 -213 -292 -394 -399 -78 -46 -90 -52 -180 -92
-80 -35 -150 -67 -190 -85 -19 -9 -68 -28 -109 -42 -88 -30 -108 -52 -72 -81
12 -10 27 -17 31 -14 5 3 30 10 57 15 360 71 753 234 1078 445 87 57 260 185
327 242 229 195 492 497 612 701 17 30 39 68 50 85 52 89 156 290 214 418 44
95 115 313 151 459 32 132 35 150 50 245 20 125 23 154 36 298 14 159 7 426
-16 602 -6 44 -12 89 -14 100 -9 67 -41 218 -71 333 -34 134 -118 379 -135
397 -5 5 -9 15 -9 23 0 7 -28 70 -62 140 -250 511 -598 917 -1061 1241 -48 33
-92 61 -97 61 -4 0 -10 4 -12 8 -3 7 -32 25 -133 82 -80 45 -252 129 -340 166
-175 72 -314 115 -560 175 -56 13 -223 39 -355 55 -52 6 -496 15 -501 10z"/>
<path d="M2908 6925 c-2 -2 -23 -5 -48 -9 -87 -11 -116 -17 -198 -42 -302 -91
-478 -258 -662 -629 -143 -289 -201 -459 -266 -770 -2 -11 -6 -40 -9 -65 -3
-25 -8 -54 -10 -65 -10 -53 -18 -194 -19 -325 0 -134 11 -346 18 -359 2 -3 6
-28 10 -56 3 -27 8 -61 11 -75 3 -14 8 -41 11 -60 20 -112 85 -347 129 -465
209 -563 537 -1059 1020 -1540 209 -209 436 -404 633 -545 35 -25 85 -62 112
-82 27 -21 52 -38 56 -38 3 0 23 -12 43 -28 20 -15 45 -32 56 -39 11 -6 70
-43 130 -81 61 -38 126 -77 145 -88 19 -10 42 -24 50 -31 59 -46 567 -289 772
-369 201 -78 529 -187 628 -209 8 -2 51 -12 95 -24 93 -23 245 -57 295 -65 19
-3 46 -8 60 -11 44 -10 234 -39 325 -50 28 -3 64 -7 80 -10 85 -12 276 -20
500 -20 276 1 383 7 590 35 39 5 90 12 115 15 25 3 52 8 60 10 8 2 31 7 50 10
193 33 593 148 745 215 22 10 78 34 125 54 115 48 93 45 -64 -10 -130 -45
-404 -116 -501 -130 -27 -3 -59 -8 -70 -10 -11 -2 -42 -7 -70 -10 -27 -3 -61
-7 -75 -10 -51 -8 -239 -17 -360 -17 -124 0 -348 11 -359 17 -3 2 -35 7 -71
10 -250 25 -635 131 -905 248 -139 61 -330 159 -387 199 -14 11 -29 19 -33 19
-4 0 -60 36 -125 81 -266 181 -471 365 -695 624 -217 250 -464 677 -584 1010
-88 245 -154 515 -177 725 -3 30 -8 58 -10 61 -5 8 -18 280 -17 374 0 89 11
309 17 340 2 11 7 47 10 80 15 136 65 378 101 489 40 125 64 210 70 256 3 25
9 59 11 75 11 60 5 262 -10 347 -86 481 -429 864 -891 996 -121 35 -181 43
-332 47 -67 1 -124 1 -125 0z"/>
<path d="M6839 6375 c-2 -1 -35 -6 -74 -9 -271 -26 -560 -111 -794 -233 -230
-120 -450 -294 -631 -499 -188 -211 -363 -510 -475 -809 -69 -184 -140 -430
-153 -535 -9 -71 -8 -303 1 -355 43 -248 202 -515 419 -703 53 -45 192 -135
258 -166 191 -88 335 -120 545 -121 153 0 225 9 349 45 129 37 264 102 391
190 77 52 234 215 300 310 130 189 388 396 580 467 17 7 54 21 83 32 56 21
166 48 242 59 94 14 361 7 455 -12 481 -99 874 -448 1020 -906 33 -104 36
-120 55 -242 9 -64 6 -319 -4 -373 -4 -16 -9 -42 -12 -57 -3 -15 -6 -31 -6
-35 0 -5 -6 -28 -14 -53 -7 -24 -12 -46 -10 -48 9 -8 133 229 209 398 87 195
190 535 211 703 3 17 7 52 11 77 18 132 22 211 19 370 -1 96 -5 184 -7 195 -3
11 -8 45 -11 75 -17 139 -57 299 -118 470 -179 499 -554 957 -1053 1283 -131
85 -166 105 -320 181 -187 92 -309 138 -555 209 -69 20 -285 63 -365 72 -33 4
-71 9 -85 12 -28 6 -456 14 -461 8z"/>
<path d="M1638 5728 c-98 -226 -216 -610 -251 -813 -3 -16 -10 -52 -15 -80 -6
-27 -13 -70 -16 -95 -4 -25 -11 -76 -16 -115 -21 -155 -24 -222 -25 -495 0
-277 5 -381 30 -565 41 -305 166 -769 268 -996 8 -19 34 -77 57 -129 210 -478
555 -958 956 -1330 410 -381 951 -703 1434 -855 101 -31 473 -127 540 -139 24
-4 124 -22 165 -30 11 -2 40 -7 65 -11 25 -4 52 -9 60 -10 8 -1 42 -6 75 -10
33 -5 67 -9 75 -10 8 -1 53 -5 99 -9 47 -4 93 -10 104 -12 115 -22 773 -22
952 0 17 2 62 7 100 10 39 4 81 9 95 11 14 2 48 7 75 10 57 7 65 8 200 31 115
19 102 16 225 43 162 36 220 51 380 97 202 59 458 149 605 214 22 10 65 28 95
41 100 41 453 223 580 299 377 224 736 498 1055 805 43 41 28 33 -45 -26 -313
-250 -634 -441 -1015 -604 -205 -87 -530 -186 -750 -230 -44 -8 -91 -17 -105
-20 -58 -12 -221 -35 -286 -40 -38 -4 -75 -8 -83 -11 -70 -22 -782 -23 -896 0
-11 2 -56 7 -100 11 -44 3 -89 8 -100 10 -11 3 -38 7 -60 10 -154 21 -314 51
-485 90 -312 70 -792 231 -1048 351 -41 19 -76 34 -78 34 -6 0 -341 167 -389
194 -22 12 -65 36 -95 52 -285 158 -652 412 -940 654 -137 115 -466 438 -577
566 -195 225 -400 510 -518 719 -58 102 -116 211 -134 250 -10 22 -33 72 -51
110 -78 170 -169 434 -206 600 -21 89 -54 274 -59 326 -4 35 -10 98 -14 139
-8 76 -6 458 2 495 2 11 7 45 11 75 13 103 15 115 41 244 14 71 30 137 34 145
9 17 22 81 17 81 -1 0 -19 -37 -38 -82z"/>
</g>
</svg>
